<svg id="logo" width="194" height="32" viewBox="0 0 194 32" fill="none" xmlns="http://www.w3.org/2000/svg">
<path d="M1.91344 4.75979C0.793386 3.84528 0.10226 1.71089 0.127628 0.631449C0.131728 0.456992 0.235955 0.303532 0.398637 0.240392C1.39614 -0.14676 3.76532 -0.171776 5.16262 0.969093C6.43474 2.00775 7.11973 4.05961 7.44305 5.47697C7.53244 5.86884 7.21342 6.22341 6.81364 6.18184C5.25247 6.01951 2.94488 5.60193 1.91344 4.75979Z" fill="#056B53"/>
<path d="M15.28 27.7434C15.28 27.3995 15.5607 27.1222 15.9058 27.107C21.7688 26.8477 25.1451 22.9289 25.1451 17.4825C25.1451 12.036 21.7688 8.11717 15.9058 7.85793C15.5607 7.84267 15.28 7.56545 15.28 7.22153V2.10211C15.28 1.7582 15 1.4794 14.6546 1.4794H10.7902C10.4448 1.4794 10.1648 1.7582 10.1648 2.10211V7.22153C10.1648 7.56545 9.88401 7.84267 9.53893 7.85793C3.67596 8.11717 0.29967 12.036 0.29967 17.4825C0.29967 22.9289 3.67596 26.8477 9.53893 27.107C9.88401 27.1222 10.1648 27.3995 10.1648 27.7434V31.3773C10.1648 31.7212 10.4448 32 10.7902 32H14.6546C15 32 15.28 31.7212 15.28 31.3773V27.7434ZM10.1648 22.8609C10.1648 23.2048 9.88334 23.488 9.54 23.4504C6.72056 23.1414 5.4149 20.7082 5.4149 17.4825C5.4149 14.2567 6.72056 11.8235 9.54 11.5145C9.88334 11.4769 10.1648 11.7601 10.1648 12.104V22.8609ZM20.0298 17.4825C20.0298 20.7082 18.7242 23.1414 15.9047 23.4504C15.5614 23.488 15.28 23.2048 15.28 22.8609V12.104C15.28 11.7601 15.5614 11.4769 15.9047 11.5145C18.7242 11.8235 20.0298 14.2567 20.0298 17.4825Z" fill="#056B53"/>
<path d="M26.508 31.3773C26.508 31.7212 26.788 32 27.1334 32H30.9978C31.3432 32 31.6232 31.7212 31.6232 31.3773V25.0561C31.6232 24.9911 31.6761 24.9384 31.7414 24.9384C31.7816 24.9384 31.8182 24.9574 31.8416 24.9899C32.1008 25.3507 33.7898 27.4844 37.4692 27.4844C42.9498 27.4844 45.6901 22.7562 45.6901 17.4825C45.6901 12.2087 42.9498 7.48055 37.4692 7.48055C33.6076 7.48055 31.9062 10.0917 31.656 10.5145C31.6346 10.5508 31.5968 10.572 31.5546 10.572C31.4916 10.572 31.4405 10.5212 31.4405 10.4585V8.64882C31.4405 8.3049 31.1605 8.0261 30.8151 8.0261H27.1334C26.788 8.0261 26.508 8.3049 26.508 8.64882V31.3773ZM31.4405 17.4825C31.4405 14.0636 32.902 11.2995 36.0077 11.2995C39.1134 11.2995 40.5749 14.0636 40.5749 17.4825C40.5749 20.9013 39.1134 23.6655 36.0077 23.6655C32.902 23.6655 31.4405 20.9013 31.4405 17.4825Z" fill="#056B53"/>
<path d="M47.4343 17.4825C47.4343 23.0108 50.5399 27.4844 56.934 27.4844C63.2107 27.4844 65.172 23.1887 65.7068 21.4619C65.8204 21.0953 65.5359 20.7558 65.1506 20.7558H61.2894C60.9885 20.7558 60.7277 20.9688 60.6218 21.2493C60.3084 22.0794 59.4096 23.6655 57.1167 23.6655C54.2873 23.6655 53.0105 21.8109 52.6565 19.2415C52.6071 18.8826 52.8963 18.5736 53.2601 18.5736H65.4401C65.7721 18.5736 66.0465 18.3154 66.0579 17.9851C66.0638 17.8159 66.0683 17.6357 66.0683 17.4825C66.0683 11.9541 63.1819 7.48055 56.934 7.48055C50.6861 7.48055 47.4343 11.9541 47.4343 17.4825ZM56.934 11.2995C59.1922 11.2995 60.2485 12.6418 60.6805 14.5947C60.7623 14.9643 60.4674 15.3002 60.0874 15.3002H53.4858C53.0942 15.3002 52.7966 14.9445 52.9032 14.5693C53.4543 12.6302 54.6855 11.2995 56.934 11.2995Z" fill="#056B53"/>
<path d="M83.9645 8.64882C83.9645 8.3049 83.6844 8.0261 83.339 8.0261H79.4747C79.1292 8.0261 78.8492 8.3049 78.8492 8.64882V17.8462C78.8492 21.6651 77.68 23.3018 75.4878 23.3018C73.4783 23.3018 72.8206 21.8469 72.8206 18.5736V8.64882C72.8206 8.3049 72.5406 8.0261 72.1952 8.0261H68.3308C67.9854 8.0261 67.7054 8.3049 67.7054 8.64882V19.6647C67.7054 24.0292 68.9841 27.4844 73.734 27.4844C77.2046 27.4844 78.8811 24.5079 79.1693 23.9402C79.1979 23.8839 79.2554 23.8473 79.3188 23.8473C79.3876 23.8473 79.4488 23.8912 79.4722 23.9556C80.2541 26.112 81.859 27.4844 84.8779 27.4844C88.4021 27.4844 89.768 24.4153 89.967 23.9157C89.9838 23.8736 90.0235 23.8473 90.0689 23.8473C90.128 23.8473 90.1758 23.895 90.1758 23.9537V26.3161C90.1758 26.66 90.4558 26.9388 90.8012 26.9388H94.4829C94.8283 26.9388 95.1083 26.66 95.1083 26.3161V8.64882C95.1083 8.3049 94.8283 8.0261 94.4829 8.0261H90.6185C90.2731 8.0261 89.9931 8.3049 89.9931 8.64882V17.8462C89.9931 21.6651 88.8239 23.3018 86.6317 23.3018C84.6221 23.3018 83.9645 21.8469 83.9645 18.5736V8.64882Z" fill="#056B53"/>
<path d="M108.92 14V7.45455H114.068V14H113.062V8.39205H109.926V14H108.92ZM118.564 14.1364C117.973 14.1364 117.455 13.9957 117.009 13.7145C116.565 13.4332 116.219 13.0398 115.969 12.5341C115.722 12.0284 115.598 11.4375 115.598 10.7614C115.598 10.0795 115.722 9.48437 115.969 8.97585C116.219 8.46733 116.565 8.07244 117.009 7.79119C117.455 7.50994 117.973 7.36932 118.564 7.36932C119.155 7.36932 119.672 7.50994 120.115 7.79119C120.561 8.07244 120.908 8.46733 121.155 8.97585C121.405 9.48437 121.53 10.0795 121.53 10.7614C121.53 11.4375 121.405 12.0284 121.155 12.5341C120.908 13.0398 120.561 13.4332 120.115 13.7145C119.672 13.9957 119.155 14.1364 118.564 14.1364ZM118.564 13.233C119.013 13.233 119.382 13.1179 119.672 12.8878C119.962 12.6577 120.176 12.3551 120.315 11.9801C120.455 11.6051 120.524 11.1989 120.524 10.7614C120.524 10.3239 120.455 9.91619 120.315 9.53835C120.176 9.16051 119.962 8.85511 119.672 8.62216C119.382 8.3892 119.013 8.27273 118.564 8.27273C118.115 8.27273 117.746 8.3892 117.456 8.62216C117.166 8.85511 116.952 9.16051 116.812 9.53835C116.673 9.91619 116.604 10.3239 116.604 10.7614C116.604 11.1989 116.673 11.6051 116.812 11.9801C116.952 12.3551 117.166 12.6577 117.456 12.8878C117.746 13.1179 118.115 13.233 118.564 13.233ZM122.366 15.875V13.0625H122.912C123.045 12.9233 123.16 12.7727 123.257 12.6108C123.353 12.4489 123.437 12.2571 123.508 12.0355C123.582 11.8111 123.645 11.5384 123.696 11.2173C123.747 10.8935 123.792 10.5028 123.832 10.0455L124.054 7.45455H128.213V13.0625H129.218V15.875H128.213V14H123.372V15.875H122.366ZM124.054 13.0625H127.207V8.39205H124.991L124.821 10.0455C124.75 10.7301 124.662 11.3281 124.556 11.8395C124.451 12.3509 124.284 12.7585 124.054 13.0625ZM135.411 5L135.923 5.61364C135.724 5.80682 135.494 5.94176 135.232 6.01847C134.971 6.09517 134.675 6.14205 134.346 6.15909C134.016 6.17614 133.65 6.19318 133.246 6.21023C132.792 6.22727 132.415 6.33807 132.117 6.54261C131.819 6.74716 131.589 7.04261 131.427 7.42898C131.265 7.81534 131.161 8.28977 131.116 8.85227H131.201C131.423 8.44318 131.729 8.14205 132.121 7.94886C132.513 7.75568 132.934 7.65909 133.383 7.65909C133.894 7.65909 134.354 7.77841 134.763 8.01705C135.173 8.25568 135.496 8.60938 135.735 9.07812C135.974 9.54688 136.093 10.125 136.093 10.8125C136.093 11.4972 135.971 12.0881 135.727 12.5852C135.485 13.0824 135.146 13.4659 134.708 13.7358C134.273 14.0028 133.763 14.1364 133.178 14.1364C132.593 14.1364 132.08 13.9986 131.64 13.723C131.2 13.4446 130.857 13.0327 130.613 12.4872C130.369 11.9389 130.246 11.2614 130.246 10.4545V9.75568C130.246 8.2983 130.494 7.19318 130.988 6.44034C131.485 5.6875 132.232 5.2983 133.229 5.27273C133.582 5.26136 133.896 5.25852 134.171 5.2642C134.447 5.26989 134.687 5.2571 134.891 5.22585C135.096 5.1946 135.269 5.11932 135.411 5ZM133.178 13.233C133.573 13.233 133.913 13.1335 134.197 12.9347C134.484 12.7358 134.704 12.456 134.857 12.0952C135.011 11.7315 135.087 11.304 135.087 10.8125C135.087 10.3352 135.009 9.92898 134.853 9.59375C134.7 9.25852 134.479 9.00284 134.192 8.8267C133.906 8.65057 133.562 8.5625 133.161 8.5625C132.869 8.5625 132.606 8.61222 132.373 8.71165C132.14 8.81108 131.941 8.95739 131.776 9.15057C131.612 9.34375 131.484 9.57955 131.393 9.85795C131.305 10.1364 131.258 10.4545 131.252 10.8125C131.252 11.5455 131.424 12.1321 131.768 12.5724C132.112 13.0128 132.582 13.233 133.178 13.233ZM140.29 14.1364C139.7 14.1364 139.181 13.9957 138.735 13.7145C138.292 13.4332 137.945 13.0398 137.695 12.5341C137.448 12.0284 137.325 11.4375 137.325 10.7614C137.325 10.0795 137.448 9.48437 137.695 8.97585C137.945 8.46733 138.292 8.07244 138.735 7.79119C139.181 7.50994 139.7 7.36932 140.29 7.36932C140.881 7.36932 141.398 7.50994 141.842 7.79119C142.288 8.07244 142.634 8.46733 142.881 8.97585C143.131 9.48437 143.256 10.0795 143.256 10.7614C143.256 11.4375 143.131 12.0284 142.881 12.5341C142.634 13.0398 142.288 13.4332 141.842 13.7145C141.398 13.9957 140.881 14.1364 140.29 14.1364ZM140.29 13.233C140.739 13.233 141.109 13.1179 141.398 12.8878C141.688 12.6577 141.903 12.3551 142.042 11.9801C142.181 11.6051 142.251 11.1989 142.251 10.7614C142.251 10.3239 142.181 9.91619 142.042 9.53835C141.903 9.16051 141.688 8.85511 141.398 8.62216C141.109 8.3892 140.739 8.27273 140.29 8.27273C139.842 8.27273 139.472 8.3892 139.183 8.62216C138.893 8.85511 138.678 9.16051 138.539 9.53835C138.4 9.91619 138.33 10.3239 138.33 10.7614C138.33 11.1989 138.4 11.6051 138.539 11.9801C138.678 12.3551 138.893 12.6577 139.183 12.8878C139.472 13.1179 139.842 13.233 140.29 13.233ZM144.792 16.4545V7.45455H145.763V8.49432H145.882C145.956 8.38068 146.059 8.2358 146.189 8.05966C146.323 7.88068 146.513 7.72159 146.76 7.58239C147.01 7.44034 147.348 7.36932 147.775 7.36932C148.326 7.36932 148.811 7.5071 149.232 7.78267C149.652 8.05824 149.98 8.44886 150.216 8.95455C150.452 9.46023 150.57 10.0568 150.57 10.7443C150.57 11.4375 150.452 12.0384 150.216 12.5469C149.98 13.0526 149.654 13.4446 149.236 13.723C148.819 13.9986 148.337 14.1364 147.792 14.1364C147.371 14.1364 147.034 14.0668 146.782 13.9276C146.529 13.7855 146.334 13.625 146.198 13.446C146.061 13.2642 145.956 13.1136 145.882 12.9943H145.797V16.4545H144.792ZM145.78 10.7273C145.78 11.2216 145.853 11.6577 145.998 12.0355C146.142 12.4105 146.354 12.7045 146.632 12.9176C146.911 13.1278 147.252 13.233 147.655 13.233C148.076 13.233 148.426 13.1222 148.708 12.9006C148.992 12.6761 149.205 12.375 149.347 11.9972C149.492 11.6165 149.564 11.1932 149.564 10.7273C149.564 10.267 149.493 9.85227 149.351 9.48295C149.212 9.1108 149 8.81676 148.716 8.60085C148.435 8.3821 148.081 8.27273 147.655 8.27273C147.246 8.27273 146.902 8.37642 146.624 8.58381C146.346 8.78835 146.135 9.07528 145.993 9.4446C145.851 9.81108 145.78 10.2386 145.78 10.7273ZM108.92 26V19.4545H114.068V26H113.062V20.392H109.926V26H108.92ZM115.325 26V25.0625H115.564C115.76 25.0625 115.923 25.0241 116.054 24.9474C116.185 24.8679 116.29 24.7301 116.369 24.5341C116.452 24.3352 116.514 24.0597 116.557 23.7074C116.602 23.3523 116.635 22.9006 116.655 22.3523L116.774 19.4545H121.138V26H120.132V20.392H117.729L117.626 22.7273C117.604 23.2642 117.555 23.7372 117.482 24.1463C117.411 24.5526 117.301 24.8935 117.153 25.169C117.009 25.4446 116.815 25.652 116.574 25.7912C116.332 25.9304 116.03 26 115.666 26H115.325ZM124.909 26.1534C124.494 26.1534 124.118 26.0753 123.78 25.919C123.442 25.7599 123.173 25.5312 122.974 25.233C122.776 24.9318 122.676 24.5682 122.676 24.142C122.676 23.767 122.75 23.4631 122.898 23.2301C123.045 22.9943 123.243 22.8097 123.49 22.6761C123.737 22.5426 124.01 22.4432 124.308 22.3778C124.609 22.3097 124.912 22.2557 125.216 22.2159C125.614 22.1648 125.936 22.1264 126.183 22.1009C126.433 22.0724 126.615 22.0256 126.729 21.9602C126.845 21.8949 126.903 21.7812 126.903 21.6193V21.5852C126.903 21.1648 126.788 20.8381 126.558 20.6051C126.331 20.3722 125.986 20.2557 125.523 20.2557C125.043 20.2557 124.666 20.3608 124.393 20.571C124.121 20.7812 123.929 21.0057 123.818 21.2443L122.864 20.9034C123.034 20.5057 123.261 20.196 123.545 19.9744C123.832 19.75 124.145 19.5937 124.483 19.5057C124.824 19.4148 125.159 19.3693 125.489 19.3693C125.699 19.3693 125.94 19.3949 126.213 19.446C126.489 19.4943 126.754 19.5952 127.01 19.7486C127.268 19.902 127.483 20.1335 127.653 20.4432C127.824 20.7528 127.909 21.1676 127.909 21.6875V26H126.903V25.1136H126.852C126.784 25.2557 126.67 25.4077 126.511 25.5696C126.352 25.7315 126.141 25.8693 125.876 25.983C125.612 26.0966 125.29 26.1534 124.909 26.1534ZM125.062 25.25C125.46 25.25 125.795 25.1719 126.068 25.0156C126.344 24.8594 126.551 24.6577 126.69 24.4105C126.832 24.1634 126.903 23.9034 126.903 23.6307V22.7102C126.861 22.7614 126.767 22.8082 126.622 22.8509C126.48 22.8906 126.315 22.9261 126.128 22.9574C125.943 22.9858 125.763 23.0114 125.587 23.0341C125.413 23.054 125.273 23.071 125.165 23.0852C124.903 23.1193 124.659 23.1747 124.432 23.2514C124.207 23.3253 124.026 23.4375 123.886 23.5881C123.75 23.7358 123.682 23.9375 123.682 24.1932C123.682 24.5426 123.811 24.8068 124.07 24.9858C124.331 25.1619 124.662 25.25 125.062 25.25ZM134.125 22.267V23.2045H130.512V22.267H134.125ZM130.75 19.4545V26H129.745V19.4545H130.75ZM134.892 19.4545V26H133.887V19.4545H134.892ZM138.655 26.1534C138.24 26.1534 137.864 26.0753 137.526 25.919C137.188 25.7599 136.919 25.5312 136.721 25.233C136.522 24.9318 136.422 24.5682 136.422 24.142C136.422 23.767 136.496 23.4631 136.644 23.2301C136.792 22.9943 136.989 22.8097 137.236 22.6761C137.483 22.5426 137.756 22.4432 138.054 22.3778C138.355 22.3097 138.658 22.2557 138.962 22.2159C139.36 22.1648 139.682 22.1264 139.929 22.1009C140.179 22.0724 140.361 22.0256 140.475 21.9602C140.591 21.8949 140.65 21.7812 140.65 21.6193V21.5852C140.65 21.1648 140.534 20.8381 140.304 20.6051C140.077 20.3722 139.732 20.2557 139.269 20.2557C138.789 20.2557 138.412 20.3608 138.14 20.571C137.867 20.7812 137.675 21.0057 137.564 21.2443L136.61 20.9034C136.78 20.5057 137.007 20.196 137.292 19.9744C137.578 19.75 137.891 19.5937 138.229 19.5057C138.57 19.4148 138.905 19.3693 139.235 19.3693C139.445 19.3693 139.686 19.3949 139.959 19.446C140.235 19.4943 140.5 19.5952 140.756 19.7486C141.015 19.902 141.229 20.1335 141.4 20.4432C141.57 20.7528 141.655 21.1676 141.655 21.6875V26H140.65V25.1136H140.598C140.53 25.2557 140.417 25.4077 140.257 25.5696C140.098 25.7315 139.887 25.8693 139.623 25.983C139.358 26.0966 139.036 26.1534 138.655 26.1534ZM138.809 25.25C139.206 25.25 139.542 25.1719 139.814 25.0156C140.09 24.8594 140.297 24.6577 140.436 24.4105C140.578 24.1634 140.65 23.9034 140.65 23.6307V22.7102C140.607 22.7614 140.513 22.8082 140.368 22.8509C140.226 22.8906 140.061 22.9261 139.874 22.9574C139.689 22.9858 139.509 23.0114 139.333 23.0341C139.159 23.054 139.019 23.071 138.911 23.0852C138.65 23.1193 138.405 23.1747 138.178 23.2514C137.953 23.3253 137.772 23.4375 137.632 23.5881C137.496 23.7358 137.428 23.9375 137.428 24.1932C137.428 24.5426 137.557 24.8068 137.816 24.9858C138.077 25.1619 138.408 25.25 138.809 25.25ZM146.866 26V19.4545H152.013V26H151.008V20.392H147.871V26H146.866ZM154.856 24.517L158.009 19.4545H159.168V26H158.163V20.9375L155.026 26H153.85V19.4545H154.856V24.517ZM160.12 20.392V19.4545H165.438V20.392H163.29V26H162.284V20.392H160.12ZM168.491 26.1534C168.076 26.1534 167.7 26.0753 167.362 25.919C167.024 25.7599 166.755 25.5312 166.556 25.233C166.358 24.9318 166.258 24.5682 166.258 24.142C166.258 23.767 166.332 23.4631 166.48 23.2301C166.627 22.9943 166.825 22.8097 167.072 22.6761C167.319 22.5426 167.592 22.4432 167.89 22.3778C168.191 22.3097 168.494 22.2557 168.798 22.2159C169.196 22.1648 169.518 22.1264 169.765 22.1009C170.015 22.0724 170.197 22.0256 170.311 21.9602C170.427 21.8949 170.485 21.7812 170.485 21.6193V21.5852C170.485 21.1648 170.37 20.8381 170.14 20.6051C169.913 20.3722 169.568 20.2557 169.105 20.2557C168.625 20.2557 168.248 20.3608 167.975 20.571C167.703 20.7812 167.511 21.0057 167.4 21.2443L166.446 20.9034C166.616 20.5057 166.843 20.196 167.127 19.9744C167.414 19.75 167.727 19.5937 168.065 19.5057C168.406 19.4148 168.741 19.3693 169.071 19.3693C169.281 19.3693 169.522 19.3949 169.795 19.446C170.071 19.4943 170.336 19.5952 170.592 19.7486C170.85 19.902 171.065 20.1335 171.235 20.4432C171.406 20.7528 171.491 21.1676 171.491 21.6875V26H170.485V25.1136H170.434C170.366 25.2557 170.252 25.4077 170.093 25.5696C169.934 25.7315 169.723 25.8693 169.458 25.983C169.194 26.0966 168.872 26.1534 168.491 26.1534ZM168.645 25.25C169.042 25.25 169.377 25.1719 169.65 25.0156C169.926 24.8594 170.133 24.6577 170.272 24.4105C170.414 24.1634 170.485 23.9034 170.485 23.6307V22.7102C170.443 22.7614 170.349 22.8082 170.204 22.8509C170.062 22.8906 169.897 22.9261 169.71 22.9574C169.525 22.9858 169.345 23.0114 169.169 23.0341C168.995 23.054 168.855 23.071 168.747 23.0852C168.485 23.1193 168.241 23.1747 168.014 23.2514C167.789 23.3253 167.608 23.4375 167.468 23.5881C167.332 23.7358 167.264 23.9375 167.264 24.1932C167.264 24.5426 167.393 24.8068 167.652 24.9858C167.913 25.1619 168.244 25.25 168.645 25.25ZM177.707 22.267V23.2045H174.094V22.267H177.707ZM174.332 19.4545V26H173.327V19.4545H174.332ZM178.474 19.4545V26H177.469V19.4545H178.474ZM181.317 24.517L184.47 19.4545H185.629V26H184.624V20.9375L181.487 26H180.311V19.4545H181.317V24.517ZM191.409 26V20.375H189.67C189.278 20.375 188.97 20.4659 188.745 20.6477C188.521 20.8295 188.409 21.0795 188.409 21.3977C188.409 21.7102 188.51 21.956 188.711 22.1349C188.916 22.3139 189.196 22.4034 189.551 22.4034H191.664V23.3409H189.551C189.108 23.3409 188.725 23.2628 188.404 23.1065C188.083 22.9503 187.836 22.7273 187.663 22.4375C187.49 22.1449 187.403 21.7983 187.403 21.3977C187.403 20.9943 187.494 20.6477 187.676 20.358C187.858 20.0682 188.118 19.8452 188.456 19.6889C188.797 19.5327 189.201 19.4545 189.67 19.4545H192.363V26H191.409ZM187.045 26L188.903 22.7443H189.994L188.136 26H187.045Z" fill="#1E1F1F"/>
</svg>
